<svg xmlns="http://www.w3.org/2000/svg" viewBox="0 0 402.5 94.84"><defs><style>.cls-1{fill:#003a71;}</style></defs><title>logo</title><g id="Layer_1" data-name="Layer 1"><path class="cls-1" d="M207.69,94.14H186.8c.75-3.25,1.93-6,1.94-8.82q.22-37.47,0-74.95c0-3.12-1-6.23-1.68-9.78h45.37V94.4H214.28c-.09-2.09-.26-4-.26-6q0-34,0-68c0-1.66.26-3.46-.28-4.94-.41-1.1-1.93-2.48-2.95-2.48s-2.45,1.41-2.89,2.53c-.52,1.3-.18,3-.18,4.45C207.69,44.66,207.69,69.3,207.69,94.14Z"/><path class="cls-1" d="M380.7.48h21.8c-4.69,3.36-3,8-3.06,12.05-.07,24.32,0,48.64,0,73,0,7.58-1.75,9.27-9.5,9.28-11.14,0-22.28,0-33.86,0V82.71H380.4V75.88c-6.07,0-12,.06-18,0-4-.05-6.78-1.76-6.79-6.22,0-23,0-45.95,0-69.27h18.25c0,1.67,0,3.42,0,5.16q0,25.23,0,50.47c0,1.33-.38,2.91.2,3.93.76,1.35,2.29,2.27,3.5,3.37,1-1.25,2.93-2.47,3-3.76.3-7.15.15-14.32.15-21.48C380.7,25.6,380.7,13.14,380.7.48Z"/><path class="cls-1" d="M54,.52H74.65V81.85c13,2.61,13.6,3.23,12.3,12.61-8.66,0-17.41.31-26.13-.13-4.18-.21-4.76-4-4.76-7.57q0-23,0-46c0-10.67.11-21.33-.08-32C55.94,6.3,54.85,3.86,54,.52Z"/><path class="cls-1" d="M93.95.57H115.5V80.83c4.54,1.83,8.77,2.61,11.62,5,1.64,1.4,1,5.43,1.54,8.82-9.28,0-17.57.21-25.84-.08-4.62-.16-5.88-3.6-5.86-7.74,0-10.5,0-21,0-31.5q0-22.25,0-44.5C96.94,7.34,98.11,3.42,93.95.57Z"/><path class="cls-1" d="M267.7,38.15c4.76,0,8.73-.22,12.67.06s6.22,2.68,6.26,6.5c.14,14.47.1,28.95,0,43.42,0,3.95-2.28,6.45-6.12,6.5-13.14.17-26.28.06-39.43,0-.5,0-1-.59-.48-.26l3-11.62h24Z"/><path class="cls-1" d="M261.46,56.76c-4.91,0-8.74.13-12.56,0s-6.18-2.35-6.19-6.35c0-14.66-.07-29.32,0-44,0-4,2.44-6.26,6.31-6.3C261.35-.05,273.66,0,286.33,0V12.09H261.46Z"/><path class="cls-1" d="M348.58,34.19V46.35h-49V34.19Z"/><path class="cls-1" d="M46.26,6.94c0-4.57-2.75-6.92-7.4-6.92C29.7,0,20.54,0,11.38,0,4.19,0,2.53,1.66,2.52,8.77c0,26,0,52-.1,78,0,2.2-1.33,4.4-2.42,7.78,6.18.62,13.33.18,20.88.17,0-6.94-.23-13.26.15-19.55.11-1.83,1.76-4.87,3.07-5.08,3.44-.56,3.59,2.47,3.58,5.1,0,6.31,0,12.62,0,19.36H45.74a9.78,9.78,0,0,0,.53-2.11C46.3,63.91,46.36,35.42,46.26,6.94ZM27.52,46a4.63,4.63,0,0,1-1.2,2.42c-.63.79-1.39,1.57-1.94,2.37h0a13.74,13.74,0,0,0-1-1.15c-1.08-1.14-2.28-2.28-2.31-3.45q-.42-17.69,0-35.39c0-1.54,2.2-3,3.38-4.55,1.07,1.62,3,3.19,3.07,4.87.14,2.17.2,4.35.22,6.53,0,3.63-.07,7.27-.07,10.91C27.67,34.37,27.91,40.2,27.52,46Z"/><path class="cls-1" d="M178.87,8.48C178.85,2,177,.06,170.66,0Q156.93,0,143.19,0c-5.84,0-8,2-8,7.72q-.08,39.71,0,79.41c0,5.64,1.85,7.51,7.49,7.57q14.23.15,28.47,0c5.89-.06,7.66-2,7.68-7.84,0-13,0-26,0-39Q178.87,28.21,178.87,8.48ZM160.53,76.85c0,2.56-.19,5.67-3.67,5-1.3-.23-2.93-3.23-3-5-.15-4.82-.18-9.65-.18-14.47s0-9.65,0-14.48,0-9.82,0-14.73,0-9.82,0-14.73c0-2.45-.35-5.81,3.22-5.35,1.39.18,3.39,3.44,3.41,5.32C160.64,37.9,160.56,57.38,160.53,76.85Z"/></g></svg>